<svg xmlns="http://www.w3.org/2000/svg" width="1024" height="1024" viewBox="0 0 1024 1024" fill="none">
  <defs>
    <linearGradient id="bg" x1="0" y1="0" x2="0" y2="1024" gradientUnits="userSpaceOnUse">
      <stop offset="0" stop-color="#2a2f37"/>
      <stop offset="1" stop-color="#171a1f"/>
    </linearGradient>
    <linearGradient id="tile" x1="0" y1="0" x2="0" y2="1" gradientUnits="objectBoundingBox">
      <stop offset="0" stop-color="#3a414c"/>
      <stop offset="1" stop-color="#2c313a"/>
    </linearGradient>
    <linearGradient id="link" x1="324" y1="700" x2="700" y2="372" gradientUnits="userSpaceOnUse">
      <stop offset="0" stop-color="#22d3ee"/>
      <stop offset="1" stop-color="#14b8a6"/>
    </linearGradient>
  </defs>

  <!-- rounded-square background with subtle depth -->
  <rect x="96" y="96" width="832" height="832" rx="184" fill="url(#bg)"/>
  <rect x="96.5" y="96.5" width="831" height="831" rx="183.5" fill="none" stroke="#000000" stroke-opacity="0.28" stroke-width="3"/>
  <rect x="99" y="99" width="826" height="826" rx="181" fill="none" stroke="#ffffff" stroke-opacity="0.06" stroke-width="2"/>

  <!-- constellation path: cyan-to-teal -->
  <path d="M324 700 L512 512 L700 372" stroke="url(#link)" stroke-width="26" stroke-linecap="round" stroke-linejoin="round" fill="none"/>

  <!-- three modular skill tiles -->
  <rect x="268" y="644" width="112" height="112" rx="26" fill="url(#tile)" stroke="#4b5563" stroke-opacity="0.55" stroke-width="2"/>
  <rect x="456" y="456" width="112" height="112" rx="26" fill="url(#tile)" stroke="#4b5563" stroke-opacity="0.55" stroke-width="2"/>
  <rect x="644" y="316" width="112" height="112" rx="26" fill="url(#tile)" stroke="#4b5563" stroke-opacity="0.55" stroke-width="2"/>

  <!-- cyan/teal nodes on the lower two tiles -->
  <circle cx="324" cy="700" r="20" fill="#22d3ee"/>
  <circle cx="512" cy="512" r="20" fill="#2dd4bf"/>

  <!-- amber accent node (top of the path) -->
  <circle cx="700" cy="372" r="24" fill="#f59e0b"/>
  <circle cx="700" cy="372" r="24" fill="none" stroke="#fbbf24" stroke-opacity="0.65" stroke-width="3"/>
</svg>
